<svg width="63" height="32" viewBox="0 0 63 32" fill="none" xmlns="http://www.w3.org/2000/svg">
<path fill-rule="evenodd" clip-rule="evenodd" d="M5.51724 0C2.47015 0 0 2.47015 0 5.51724V26.4828C0 29.5298 2.47015 32 5.51724 32H56.6437C59.6908 32 62.1609 29.5298 62.1609 26.4828V5.51724C62.1609 2.47015 59.6908 0 56.6437 0H5.51724ZM38.8242 15.1644C38.9097 14.524 39.4889 13.7435 40.1208 13.8302V13.8335C43.9844 14.3639 52.9655 16.0684 52.9655 20.4147C52.9655 25.1212 41.9572 27.5862 31.0805 27.5862C20.2038 27.5862 9.1954 25.1212 9.1954 20.4147C9.1954 16.2151 17.9396 13.8836 26.9601 13.3632C26.9667 13.3632 26.97 13.3532 26.97 13.3532V12.4392C26.97 12.4359 26.9667 12.4292 26.9601 12.4292C21.6452 11.5653 21.0462 9.48057 21.0462 8.58329C21.0462 5.71801 26.2493 4.41379 31.0838 4.41379C35.9182 4.41379 41.1213 5.71801 41.1213 8.58329C41.1213 9.47723 40.5223 11.5653 35.2074 12.4292C35.2008 12.4292 35.1975 12.4392 35.1975 12.4392V16.2051C35.1975 16.3719 35.2139 16.542 35.2436 16.7088L35.3653 17.3893C35.3653 18.0497 34.6545 18.2799 33.993 18.2499C33.4302 18.2232 32.6305 18.0197 32.7292 17.3092C32.9102 16.0017 32.9761 12.7228 32.8938 11.9256C32.8938 11.3318 33.3282 10.6547 33.9107 10.5847C36.6455 10.2578 38.3108 9.56062 38.8933 9.04027C39.173 8.7901 39.1598 8.36648 38.8768 8.17301C38.0442 7.60596 35.5957 6.41182 31.4096 6.41182C27.6644 6.41182 25.3476 7.49922 24.3175 8.09963C23.9094 8.33646 23.8995 8.94354 24.3109 9.17703C25.1962 9.68404 26.5159 10.0009 27.5032 10.1477C28.1943 10.2511 28.7603 10.7548 28.9545 11.4352C29.4013 13.0056 29.3176 15.6632 29.2527 17.7265C29.2143 18.9458 29.1824 19.9575 29.2704 20.4147C29.3922 21.0484 28.7537 21.2486 28.1186 21.2486C27.8026 21.2486 27.3847 21.2185 27.049 21.1051C26.6771 20.9817 26.4171 20.6382 26.4566 20.478C26.9869 18.3984 26.9692 16.0456 26.9669 15.7363C26.9668 15.7232 26.9667 15.7137 26.9667 15.7081C26.9667 15.7015 26.9601 15.7015 26.9569 15.7015C16.9917 16.2852 12.8155 18.3933 12.8155 20.0811C12.8155 21.7689 17.5677 25.1846 30.4223 25.1846C43.2769 25.1846 51.0666 22.6428 50.9909 20.0811C50.935 18.2098 42.8523 15.995 39.2191 16.6121C38.6147 16.7147 38.7283 15.8737 38.814 15.2395C38.8175 15.2141 38.8209 15.1891 38.8242 15.1644Z" fill="#838383"/>
</svg>
