<svg width="22" height="21" viewBox="0 0 22 21" fill="none" xmlns="http://www.w3.org/2000/svg">
<path d="M10.9781 0.819336C9.86594 0.819336 8.96439 1.72089 8.96439 2.83302V8.87405H2.92335C1.81122 8.87405 0.909668 9.77561 0.909668 10.8877C0.909668 11.9999 1.81122 12.9014 2.92335 12.9014H8.96439V18.9424C8.96439 20.0546 9.86594 20.9561 10.9781 20.9561C12.0902 20.9561 12.9917 20.0546 12.9917 18.9424V12.9014H19.0328C20.1449 12.9014 21.0465 11.9999 21.0465 10.8877C21.0465 9.77561 20.1449 8.87405 19.0328 8.87405H12.9917V2.83302C12.9917 1.72089 12.0902 0.819336 10.9781 0.819336Z" fill="#BB3D3D"/>
</svg>
